<svg width="114" height="33" viewBox="0 0 114 33" fill="none" xmlns="http://www.w3.org/2000/svg">
<path d="M92.7696 11.9489C93.6022 11.8547 94.358 11.7076 95.1315 11.6958C95.8435 11.655 96.5564 11.7593 97.2265 12.0026C97.8967 12.2458 98.51 12.6227 99.029 13.1103C99.548 13.5979 99.9617 14.1859 100.245 14.8383C100.528 15.4908 100.675 16.194 100.676 16.9049C100.728 17.6654 100.678 18.4294 100.528 19.1769C100.015 21.49 98.2374 22.991 95.6984 23.3853C94.2461 23.6031 92.7693 23.6031 91.3171 23.3853C90.0594 23.2087 89.5456 22.5848 89.5456 21.3193V7.81105C89.5308 7.52767 89.5918 7.24545 89.7223 6.99328C89.8528 6.74112 90.0483 6.52807 90.2886 6.37596C90.5289 6.22384 90.8055 6.13813 91.0899 6.1276C91.3744 6.11707 91.6566 6.18209 91.9075 6.31601C92.1927 6.44143 92.4326 6.6507 92.5951 6.91579C92.7576 7.18088 92.835 7.48913 92.8169 7.79928V11.9195L92.7696 11.9489ZM92.7696 17.7878C92.7696 18.6648 92.7696 19.5536 92.7696 20.4188C92.7696 20.7131 92.87 20.8367 93.1593 20.8367C93.5491 20.8367 93.9447 20.8779 94.3403 20.8367C95.0847 20.852 95.8074 20.5864 96.3636 20.093C96.9199 19.5996 97.2686 18.915 97.3399 18.1762C97.6115 16.4811 96.7494 14.9802 95.3323 14.5564C94.6165 14.3842 93.867 14.4107 93.1653 14.6329C93.1057 14.64 93.0483 14.6591 92.9964 14.689C92.9445 14.719 92.8992 14.7591 92.8633 14.807C92.8274 14.8548 92.8017 14.9095 92.7876 14.9676C92.7735 15.0257 92.7714 15.086 92.7814 15.145C92.7755 16.0337 92.7696 16.9049 92.7696 17.7878Z" fill="#333333"/>
<path d="M108.275 19.6713C108.645 18.5372 109.019 17.4013 109.397 16.2633C109.751 15.1685 110.1 14.0678 110.478 12.9789C110.573 12.5982 110.794 12.2601 111.104 12.0181C111.414 11.7762 111.796 11.6441 112.19 11.6428C112.464 11.6292 112.738 11.681 112.988 11.7942C113.238 11.9073 113.458 12.0784 113.628 12.2932C113.799 12.508 113.915 12.7603 113.968 13.0291C114.021 13.2978 114.008 13.5753 113.932 13.8383C113.595 14.9566 113.146 16.0396 112.751 17.1344C111.904 19.3907 111.056 21.6411 110.206 23.8856C109.67 25.4673 108.691 26.8625 107.383 27.9057C106.394 28.6635 105.183 29.0771 103.935 29.0829C103.673 29.0967 103.411 29.044 103.174 28.9298C102.938 28.8156 102.734 28.6435 102.582 28.4297C102.43 28.2159 102.334 27.9673 102.305 27.7069C102.275 27.4465 102.312 27.1828 102.412 26.9404C102.522 26.6476 102.723 26.3972 102.985 26.2249C103.247 26.0525 103.557 25.9672 103.87 25.981C104.395 25.9855 104.911 25.8469 105.363 25.5803C105.814 25.3137 106.184 24.9292 106.433 24.4683C106.515 24.3502 106.562 24.2111 106.569 24.0673C106.575 23.9235 106.54 23.7809 106.468 23.6561C105.057 20.6013 103.646 17.5523 102.27 14.4798C102.06 14.0315 101.966 13.5375 101.998 13.0437C102.051 12.7081 102.209 12.3976 102.448 12.1558C102.688 11.9141 102.997 11.7532 103.333 11.6958C103.695 11.615 104.073 11.6494 104.414 11.794C104.755 11.9387 105.042 12.1864 105.234 12.5022C105.36 12.7092 105.464 12.9281 105.547 13.1555C106.334 15.1528 107.122 17.1462 107.909 19.1357C107.98 19.3122 108.062 19.4888 108.139 19.6654L108.275 19.6713Z" fill="#333333"/>
<path d="M44.4922 18.5944C44.5495 19.2616 44.865 19.8805 45.372 20.3199C45.8789 20.7593 46.5375 20.9849 47.2084 20.9488C47.9658 20.8898 48.7155 20.7557 49.4462 20.5485C49.7001 20.4956 49.9304 20.3543 50.1784 20.2778C50.4469 20.1685 50.7463 20.1614 51.0197 20.2581C51.293 20.3547 51.5211 20.5481 51.6605 20.8016C51.8255 21.0588 51.8902 21.3674 51.8423 21.669C51.7944 21.9705 51.6373 22.2441 51.4007 22.4379C51.0329 22.7158 50.6247 22.9362 50.1902 23.0913C48.6415 23.634 46.9685 23.7199 45.372 23.3385C44.198 23.0799 43.1409 22.446 42.3617 21.5333C41.5825 20.6206 41.1239 19.479 41.0556 18.2824C40.9516 17.2908 41.0561 16.2885 41.3627 15.3395C41.7014 14.3025 42.3549 13.3961 43.2329 12.7455C44.1108 12.0949 45.1699 11.7323 46.2636 11.7078C47.1588 11.6709 48.0545 11.7682 48.9207 11.9962C49.982 12.2993 50.9033 12.9632 51.5246 13.8729C52.1459 14.7825 52.428 15.8804 52.3218 16.9757C52.3363 17.1977 52.3017 17.42 52.2204 17.6272C52.1391 17.8343 52.0132 18.0211 51.8516 18.1743C51.6899 18.3276 51.4965 18.4436 51.2849 18.5142C51.0734 18.5847 50.8488 18.6081 50.6272 18.5826C48.7672 18.5826 46.9072 18.5826 45.0472 18.5826L44.4922 18.5944ZM49.1038 16.4107C49.1002 16.115 49.0368 15.823 48.9175 15.5522C48.7981 15.2814 48.6253 15.0374 48.4092 14.8347C48.1932 14.6319 47.9384 14.4747 47.66 14.3723C47.3817 14.2699 47.0855 14.2245 46.7891 14.2388C46.1967 14.2291 45.624 14.451 45.1936 14.8569C44.7632 15.2628 44.5093 15.8205 44.4863 16.4107H49.1038Z" fill="#333333"/>
<path d="M86.3743 16.3164C86.3743 17.2582 86.4157 18.2058 86.3743 19.1475C86.3635 20.109 86.0277 21.0387 85.4212 21.7863C84.8148 22.534 83.9731 23.0559 83.0323 23.2677C81.5449 23.6797 79.973 23.6797 78.4856 23.2677C77.5045 23.033 76.6353 22.4666 76.0259 21.665C75.4166 20.8633 75.1048 19.8759 75.1436 18.8709C75.0963 17.0051 75.1436 15.1333 75.1436 13.2675C75.1602 12.866 75.3256 12.4849 75.6077 12.1979C75.8898 11.9108 76.2686 11.7382 76.6709 11.7133C77.0733 11.6884 77.4706 11.813 77.7861 12.0631C78.1016 12.3132 78.313 12.671 78.3793 13.0673C78.4256 13.6193 78.4394 14.1736 78.4207 14.7272C78.4207 15.9456 78.4207 17.1699 78.4207 18.3883C78.4679 20.207 79.761 21.1606 81.5384 20.7073C82.5658 20.4483 83.1385 19.6596 83.1563 18.3883C83.1563 16.699 83.1563 15.0097 83.1563 13.3146C83.1433 12.9702 83.2469 12.6314 83.4504 12.3528C83.6538 12.0742 83.9454 11.8718 84.2782 11.7783C84.6038 11.6612 84.9593 11.6554 85.2886 11.762C85.6179 11.8686 85.9023 12.0814 86.0968 12.3669C86.2895 12.7011 86.3988 13.0766 86.4157 13.4617C86.457 14.4211 86.4157 15.3805 86.4157 16.3399L86.3743 16.3164Z" fill="#333333"/>
<path d="M58.658 14.474C58.6385 14.5554 58.6247 14.638 58.6166 14.7212C58.6166 16.281 58.6166 17.8467 58.6166 19.43C58.6166 20.6072 59.4551 21.0722 60.5298 20.6072C60.7778 20.4895 61.0199 20.3364 61.2679 20.2246C61.5152 20.0941 61.7994 20.0505 62.0747 20.1006C62.35 20.1508 62.6004 20.2919 62.7854 20.5012C62.979 20.7253 63.0898 21.0086 63.0995 21.3042C63.1092 21.5997 63.0171 21.8896 62.8385 22.1258C62.5778 22.4557 62.2549 22.7317 61.8878 22.938C60.7133 23.5729 59.3481 23.7631 58.0439 23.4737C56.3492 23.1087 55.3572 21.7726 55.3277 19.842C55.3277 18.2705 55.3277 16.693 55.3277 15.1332V14.5741C54.6664 14.5093 53.9578 14.6682 53.5563 14.0443C53.3917 13.7888 53.298 13.4943 53.2847 13.1909C53.2847 12.3668 53.698 12.1137 55.3336 11.9195V10.3715C55.314 10.1471 55.3413 9.92104 55.414 9.70774C55.4867 9.49445 55.6031 9.29855 55.7558 9.13249C55.9085 8.96644 56.0942 8.83385 56.301 8.74316C56.5079 8.65247 56.7314 8.60566 56.9574 8.6057C57.1846 8.60599 57.4093 8.65277 57.6175 8.74315C57.8258 8.83353 58.0133 8.96558 58.1683 9.13113C58.3233 9.29667 58.4425 9.49218 58.5186 9.70554C58.5947 9.9189 58.6261 10.1456 58.6107 10.3715C58.6107 10.86 58.6107 11.3486 58.6107 11.9136C59.3488 11.9136 60.0574 11.9136 60.766 11.9136C60.9424 11.8995 61.1199 11.9217 61.2874 11.9788C61.4549 12.0358 61.6089 12.1266 61.7398 12.2454C61.8707 12.3642 61.9757 12.5085 62.0484 12.6694C62.121 12.8303 62.1598 13.0044 62.1622 13.1808C62.1646 13.3573 62.1307 13.5323 62.0625 13.6952C61.9943 13.858 61.8933 14.0051 61.7657 14.1275C61.6381 14.2498 61.4867 14.3447 61.3208 14.4064C61.155 14.468 60.9782 14.495 60.8014 14.4858C60.0987 14.4917 59.402 14.474 58.658 14.474Z" fill="#333333"/>
<path d="M38.3819 18.6645C38.3819 20.3891 38.3819 22.1137 38.3819 23.8383C38.3784 25.0973 38.0705 26.337 37.4843 27.4523C37.2761 27.9185 36.9532 28.3248 36.5455 28.6335C36.1377 28.9422 35.6584 29.1433 35.152 29.2181C34.6684 29.272 34.1788 29.2115 33.723 29.0415C33.5328 28.9708 33.3641 28.8524 33.2331 28.6978C33.1022 28.5432 33.0134 28.3575 32.9754 28.1587C32.9375 27.9599 32.9515 27.7547 33.0163 27.5629C33.081 27.3712 33.1943 27.1992 33.3451 27.0638C33.3415 27.0523 33.3415 27.04 33.3451 27.0285C34.8922 25.9867 35.1165 24.4328 35.1165 22.7376C35.1165 19.6122 35.1165 16.4985 35.1165 13.373C35.1009 12.9414 35.2579 12.5212 35.553 12.205C35.8481 11.8888 36.2571 11.7023 36.6902 11.6867C37.1232 11.6711 37.5447 11.8276 37.8619 12.1218C38.1792 12.4159 38.3662 12.8237 38.3819 13.2553C38.3819 15.0564 38.3819 16.8634 38.3819 18.6645Z" fill="#333333"/>
<path d="M67.94 12.9145C68.4734 12.2888 69.2119 11.8717 70.0244 11.7373C70.9143 11.5746 71.8331 11.7005 72.6461 12.0963C72.8796 12.1954 73.0891 12.3435 73.2602 12.5303C73.4314 12.7172 73.5602 12.9385 73.6381 13.1793C73.7306 13.4506 73.7436 13.7424 73.6757 14.0208C73.6077 14.2991 73.4615 14.5524 73.2543 14.7509C73.0521 14.9434 72.7969 15.0715 72.5213 15.1187C72.2457 15.1659 71.9623 15.13 71.7072 15.0158C71.288 14.8415 70.8581 14.6941 70.42 14.5743C70.0015 14.4728 69.5603 14.5268 69.1788 14.7261C68.7973 14.9255 68.5018 15.2565 68.3475 15.6573C68.1209 16.2205 67.9892 16.8171 67.9577 17.4231C67.9046 18.8534 67.9577 20.2837 67.9577 21.7199C67.9764 21.9478 67.9478 22.177 67.8737 22.3934C67.7996 22.6098 67.6816 22.8087 67.5271 22.9776C67.3725 23.1466 67.1847 23.282 66.9754 23.3755C66.7661 23.469 66.5397 23.5185 66.3103 23.521C66.0834 23.5208 65.859 23.474 65.651 23.3835C65.443 23.2931 65.2559 23.1609 65.1013 22.9953C64.9468 22.8296 64.8281 22.634 64.7527 22.4207C64.6773 22.2074 64.6467 21.9808 64.6629 21.7552V13.5619C64.6629 12.5495 65.1058 11.908 65.9265 11.7196C66.7473 11.5313 67.4204 11.9021 67.8692 12.8085C67.8951 12.8466 67.9248 12.8821 67.9577 12.9145H67.94Z" fill="#333333"/>
<path d="M34.8379 6.80454C34.8474 6.52796 34.9182 6.2569 35.0451 6.01077C35.172 5.76463 35.3519 5.5495 35.5719 5.38077C35.792 5.21204 36.0467 5.09388 36.3179 5.03475C36.5891 4.97562 36.8701 4.97699 37.1407 5.03874C37.5066 5.11665 37.8402 5.30343 38.0973 5.57437C38.3562 5.84304 38.5288 6.1826 38.5929 6.5496C38.6571 6.91659 38.6099 7.29433 38.4575 7.63446C38.3178 7.96183 38.0861 8.24189 37.7903 8.44083C37.4766 8.63989 37.111 8.74226 36.7392 8.73513C36.2359 8.72085 35.7585 8.50936 35.4106 8.14654C35.2307 7.97183 35.0875 7.76323 34.9891 7.53284C34.8908 7.30246 34.8394 7.0549 34.8379 6.80454Z" fill="#333333"/>
<path d="M17.8033 0.459473L18.5001 0.65371C19.3895 0.891597 20.1756 1.41478 20.7369 2.14244C21.2983 2.87011 21.6037 3.76177 21.606 4.67971C21.606 10.3832 21.606 16.0985 21.606 21.802C21.5466 24.4017 20.5381 26.8905 18.7695 28.8019C17.0009 30.7134 14.5936 31.9162 11.999 32.1849C9.24224 32.4411 6.49212 31.6316 4.31722 29.9238C2.14233 28.2159 0.70897 25.7402 0.313504 23.0086C0.223827 22.2646 0.184374 21.5154 0.19541 20.7661C0.180533 20.6594 0.188076 20.5508 0.21756 20.4471C0.247044 20.3435 0.297824 20.2471 0.366677 20.1641C0.43553 20.0811 0.52095 20.0132 0.617514 19.9648C0.714077 19.9165 0.819673 19.8887 0.927596 19.8832C1.03732 19.8682 1.14897 19.8766 1.25523 19.9076C1.3615 19.9387 1.45996 19.9919 1.54416 20.0636C1.62836 20.1353 1.6964 20.2239 1.7438 20.3237C1.7912 20.4235 1.8169 20.5321 1.81921 20.6425C1.9255 21.284 2.26206 21.596 2.8053 21.5548C3.34853 21.5136 3.61425 21.1428 3.62015 20.5247C3.62015 19.4712 3.62015 18.4117 3.62015 17.3581C3.59476 17.1646 3.6406 16.9685 3.74918 16.8062C3.85776 16.6438 4.0217 16.5262 4.21063 16.4752C4.32832 16.4386 4.45309 16.4305 4.57455 16.4517C4.69601 16.4728 4.81062 16.5227 4.90885 16.597C5.00707 16.6712 5.08605 16.7679 5.13921 16.8788C5.19236 16.9897 5.21815 17.1116 5.21443 17.2345C5.21443 17.7701 5.21443 18.3116 5.21443 18.8472C5.20145 18.9743 5.21452 19.1026 5.25283 19.2244C5.29115 19.3462 5.35391 19.459 5.4373 19.5559C5.52069 19.6528 5.62298 19.7317 5.73794 19.788C5.8529 19.8443 5.97814 19.8767 6.10604 19.8832C6.60204 19.9185 6.95632 19.5712 7.0508 18.9709C7.06452 18.7491 7.16501 18.5416 7.33066 18.393C7.49631 18.2444 7.71386 18.1666 7.93651 18.1762C8.04695 18.1842 8.15462 18.2144 8.25293 18.2652C8.35125 18.316 8.43815 18.3862 8.50833 18.4716C8.5785 18.557 8.63049 18.6557 8.66111 18.7618C8.69173 18.8679 8.70034 18.9791 8.68641 19.0886C8.68641 19.8479 8.68641 20.613 8.68641 21.3782C8.6589 21.6843 8.69563 21.9927 8.79426 22.2838C8.89289 22.5749 9.05126 22.8424 9.25928 23.0692C9.4673 23.2959 9.72041 23.477 10.0025 23.6009C10.2846 23.7248 10.5895 23.7888 10.8977 23.7888C11.206 23.7888 11.5109 23.7248 11.793 23.6009C12.075 23.477 12.3282 23.2959 12.5362 23.0692C12.7442 22.8424 12.9026 22.5749 13.0012 22.2838C13.0998 21.9927 13.1366 21.6843 13.1091 21.3782C13.1091 15.8532 13.1091 10.3244 13.1091 4.79155C13.1176 3.85141 13.4344 2.93987 14.0112 2.19597C14.588 1.45207 15.393 0.916648 16.3035 0.671368L16.894 0.500674L17.8033 0.459473Z" fill="#333333"/>
<path d="M5.43827 13.8735C5.43795 14.0062 5.41117 14.1375 5.35947 14.2597C5.30777 14.382 5.23219 14.4928 5.13713 14.5857C5.04655 14.6786 4.93825 14.7525 4.81859 14.803C4.69893 14.8536 4.57033 14.8797 4.44037 14.88C4.17682 14.8699 3.9267 14.7614 3.73966 14.5761C3.55262 14.3907 3.44232 14.142 3.43066 13.8794C3.43873 13.7376 3.47697 13.5991 3.54285 13.4732C3.59456 13.3511 3.67094 13.2409 3.76723 13.1495C3.86446 13.0568 3.97937 12.9846 4.10515 12.9371C4.23093 12.8896 4.36501 12.8677 4.49942 12.8729C4.62939 12.8715 4.75818 12.8976 4.87732 12.9494C4.99887 12.9968 5.10794 13.0713 5.19618 13.1672C5.28458 13.2614 5.35466 13.3712 5.40284 13.4909C5.44057 13.6147 5.45263 13.7449 5.43827 13.8735Z" fill="#333333"/>
<path d="M8.85717 15.5865C8.85853 15.716 8.83237 15.8444 8.78041 15.9632C8.73284 16.0843 8.65811 16.1931 8.56194 16.281C8.47051 16.3731 8.35953 16.4435 8.23717 16.487C8.11504 16.5346 7.9844 16.5567 7.85337 16.5518C7.5927 16.5478 7.34343 16.4446 7.15661 16.2634C6.9689 16.0801 6.86078 15.8307 6.85547 15.5688C6.86337 15.2988 6.97797 15.0428 7.17432 14.8566C7.3756 14.674 7.6404 14.5769 7.91241 14.5859C8.17339 14.5995 8.41891 14.7134 8.59736 14.9037C8.76767 15.0902 8.86054 15.3343 8.85717 15.5865Z" fill="#333333"/>
<path d="M1.07466 16.2929C1.20544 16.3004 1.33363 16.3324 1.45256 16.3871C1.56944 16.4447 1.67378 16.5247 1.75961 16.6225C1.84664 16.7178 1.91298 16.8301 1.95447 16.9521C1.99555 17.0753 2.01356 17.205 2.00761 17.3347C1.99088 17.5966 1.87223 17.8416 1.67694 18.0175C1.48333 18.1966 1.22641 18.2918 0.962472 18.2824C0.700104 18.2645 0.454765 18.1464 0.277523 17.9528C0.0987583 17.7608 -0.000403265 17.5084 1.23265e-06 17.2464C0.0069369 17.1141 0.0389956 16.9843 0.0944769 16.8638C0.154103 16.7418 0.236228 16.6319 0.336571 16.5401C0.438645 16.4576 0.554603 16.3939 0.679045 16.3518C0.806471 16.31 0.940961 16.294 1.07466 16.3047V16.2929Z" fill="#333333"/>
</svg>
