<?xml version="1.0" encoding="utf-8"?>
<!-- Generator: Adobe Illustrator 27.1.1, SVG Export Plug-In . SVG Version: 6.00 Build 0)  -->
<svg version="1.1" id="Слой_1" xmlns="http://www.w3.org/2000/svg" xmlns:xlink="http://www.w3.org/1999/xlink" x="0px" y="0px"
	 viewBox="0 0 51 51.5" style="enable-background:new 0 0 51 51.5;" xml:space="preserve">
<style type="text/css">
	.st0{fill:#D9D9D9;}
	.st1{fill:#020203;}
</style>
<ellipse id="Ellipse_332" class="st0" cx="25.5" cy="25.8" rx="25.5" ry="25.8"/>
<path class="st1" d="M43.7,25.9c0-10.2-8.2-18.4-18.2-18.4c-10.1,0-18.2,8.3-18.2,18.4c0,9.2,6.7,16.8,15.4,18.2V31.2H18v-5.3h4.6
	v-4.1c0-4.6,2.7-7.2,6.9-7.2c2,0,4.1,0.4,4.1,0.4v4.5h-2.3c-2.3,0-3,1.4-3,2.9v3.5h5.1l-0.8,5.3h-4.2v12.9
	C37.1,42.7,43.7,35.1,43.7,25.9z"/>
</svg>
