<?xml version="1.0" encoding="utf-8"?>
<!-- Generator: Adobe Illustrator 27.1.1, SVG Export Plug-In . SVG Version: 6.00 Build 0)  -->
<svg version="1.1" id="Слой_1" xmlns="http://www.w3.org/2000/svg" xmlns:xlink="http://www.w3.org/1999/xlink" x="0px" y="0px"
	 viewBox="0 0 51 51.5" style="enable-background:new 0 0 51 51.5;" xml:space="preserve">
<style type="text/css">
	.st0{fill:#D9D9D9;}
	.st1{display:none;fill:#020203;}
	.st2{fill-rule:evenodd;clip-rule:evenodd;fill:#020203;}
</style>
<ellipse id="Ellipse_332" class="st0" cx="25.5" cy="25.8" rx="25.5" ry="25.8"/>
<path class="st1" d="M43.7,25.9c0-10.2-8.2-18.4-18.2-18.4c-10.1,0-18.2,8.3-18.2,18.4c0,9.2,6.7,16.8,15.4,18.2V31.2H18v-5.3h4.6
	v-4.1c0-4.6,2.7-7.2,6.9-7.2c2,0,4.1,0.4,4.1,0.4v4.5h-2.3c-2.3,0-3,1.4-3,2.9v3.5h5.1l-0.8,5.3h-4.2v12.9
	C37.1,42.7,43.7,35.1,43.7,25.9z"/>
<g id="icon_x2F_instagram">
	<path id="vector" class="st2" d="M25.5,10.7c-4.1,0-4.6,0-6.2,0.1c-1.6,0.1-2.7,0.3-3.7,0.7c-1,0.4-1.9,1-2.7,1.7
		c-0.8,0.8-1.4,1.7-1.7,2.7c-0.4,1-0.6,2.1-0.7,3.7c-0.1,1.6-0.1,2.1-0.1,6.2s0,4.6,0.1,6.2c0.1,1.6,0.3,2.7,0.7,3.7
		c0.4,1,1,1.9,1.7,2.7c0.8,0.8,1.7,1.4,2.7,1.7c1,0.4,2.1,0.6,3.7,0.7c1.6,0.1,2.1,0.1,6.2,0.1s4.6,0,6.2-0.1
		c1.6-0.1,2.7-0.3,3.7-0.7c1-0.4,1.9-1,2.7-1.7c0.8-0.8,1.4-1.7,1.7-2.7c0.4-1,0.6-2.1,0.7-3.7c0.1-1.6,0.1-2.1,0.1-6.2
		s0-4.6-0.1-6.2c-0.1-1.6-0.3-2.7-0.7-3.7c-0.4-1-1-1.9-1.7-2.7c-0.8-0.8-1.7-1.4-2.7-1.7c-1-0.4-2.1-0.6-3.7-0.7
		C30.1,10.7,29.6,10.7,25.5,10.7z M25.5,13.4c4,0,4.5,0,6.1,0.1c1.5,0.1,2.3,0.3,2.8,0.5c0.7,0.3,1.2,0.6,1.7,1.1
		c0.5,0.5,0.9,1,1.1,1.7c0.2,0.5,0.5,1.3,0.5,2.8c0.1,1.6,0.1,2.1,0.1,6.1s0,4.5-0.1,6.1c-0.1,1.5-0.3,2.3-0.5,2.8
		c-0.2,0.7-0.6,1.2-1.1,1.7c-0.5,0.5-1.1,0.9-1.7,1.1c-0.5,0.2-1.3,0.5-2.8,0.5c-1.6,0.1-2.1,0.1-6.1,0.1s-4.5,0-6.1-0.1
		c-1.5-0.1-2.3-0.3-2.8-0.5c-0.7-0.2-1.2-0.6-1.7-1.1c-0.5-0.5-0.9-1.1-1.1-1.7c-0.2-0.5-0.5-1.3-0.5-2.8c-0.1-1.6-0.1-2.1-0.1-6.1
		s0-4.5,0.1-6.1c0.1-1.5,0.3-2.3,0.5-2.8c0.3-0.7,0.6-1.2,1.1-1.7c0.5-0.5,1.1-0.9,1.7-1.1c0.5-0.2,1.3-0.5,2.8-0.5
		C21,13.4,21.5,13.4,25.5,13.4z"/>
	<path id="vector_2" class="st2" d="M25.5,30.8c-0.7,0-1.3-0.1-1.9-0.4c-0.6-0.3-1.2-0.6-1.6-1.1c-0.5-0.5-0.8-1-1.1-1.6
		c-0.3-0.6-0.4-1.3-0.4-1.9c0-0.7,0.1-1.3,0.4-1.9c0.3-0.6,0.6-1.2,1.1-1.6c0.5-0.5,1-0.8,1.6-1.1c0.6-0.3,1.3-0.4,1.9-0.4
		c1.3,0,2.6,0.5,3.6,1.5c0.9,0.9,1.5,2.2,1.5,3.6c0,1.3-0.5,2.6-1.5,3.6C28.1,30.2,26.8,30.8,25.5,30.8z M25.5,18
		c-2.1,0-4,0.8-5.5,2.3c-1.5,1.5-2.3,3.4-2.3,5.5s0.8,4,2.3,5.5c1.5,1.5,3.4,2.3,5.5,2.3s4-0.8,5.5-2.3c1.5-1.5,2.3-3.4,2.3-5.5
		s-0.8-4-2.3-5.5C29.5,18.8,27.6,18,25.5,18z M35.5,17.9c0,0.5-0.2,0.9-0.5,1.3c-0.3,0.3-0.8,0.5-1.3,0.5c-0.5,0-1-0.2-1.3-0.5
		c-0.3-0.3-0.5-0.8-0.5-1.3c0-0.5,0.2-0.9,0.5-1.3c0.3-0.3,0.8-0.5,1.3-0.5c0.5,0,0.9,0.2,1.3,0.5C35.3,16.9,35.5,17.4,35.5,17.9z"
		/>
</g>
</svg>
